solid OBJECT
  facet normal -0.13084818094112913 -0.81760190931200538 0.56071906640826896
    outer loop
      vertex 13.977300643920898 -17.521718978881836 65.433876037597656
      vertex 21.178251266479492 -29.158851623535156 50.145809173583984
      vertex 27.161108016967773 -20.210508346557617 64.589813232421875
    endloop
  endfacet
  facet normal 0.082519921034689206 0.94354879557548077 -0.32078985800752574
    outer loop
      vertex 34.370590209960938 19.131738662719727 47.817127227783203
      vertex 21.050880432128906 14.74404239654541 31.485105514526367
      vertex -2.9923422336578369 20.159097671508789 41.227695465087891
    endloop
  endfacet
  facet normal 0.79164475002540569 0.54195176641882747 -0.28211145427423795
    outer loop
      vertex 58.091053009033203 10.409070014953613 6.0458016395568848
      vertex 69.396919250488281 13.08585262298584 42.913913726806641
      vertex 81.71759033203125 -16.088146209716797 21.442592620849609
    endloop
  endfacet
  facet normal -0.1564293058274524 0.98754850410923234 -0.016668062573642329
    outer loop
      vertex 3.9686708450317383 41.071620941162109 110.14939117431641
      vertex 20.878894805908203 43.497920989990234 95.200706481933594
      vertex 5.6921901702880859 40.942535400390625 86.326156616210937
    endloop
  endfacet
  facet normal -0.26034468841844932 0.64204863391017175 0.72110622997335327
    outer loop
      vertex 9.1238613128662109 3.2858524322509766 18.632539749145508
      vertex 33.840103149414063 18.084245681762695 14.379981994628906
      vertex 12.271329879760742 18.421852111816406 6.2923035621643066
    endloop
  endfacet
  facet normal 0.14516977107902812 0.93746019943860714 0.31637653521301096
    outer loop
      vertex 19.201967239379883 39.369247436523438 108.20390319824219
      vertex 20.878894805908203 43.497920989990234 95.200706481933594
      vertex 3.9686708450317383 41.071620941162109 110.14939117431641
    endloop
  endfacet
  facet normal 0.54224342293223116 0.75729676960010595 0.36396932980675945
    outer loop
      vertex 12.370729446411133 4.772282600402832 76.481101989746094
      vertex -1.0522964000701904 13.262042999267578 78.814483642578125
      vertex 0.89967817068099976 5.5582394599914551 91.9354248046875
    endloop
  endfacet
  facet normal -0.065001516175936733 0.83127055440160724 -0.55205440699234909
    outer loop
      vertex 32.464916229248047 28.418720245361328 109.72136688232422
      vertex 37.265289306640625 18.124832153320313 93.655853271484375
      vertex 12.370729446411133 4.772282600402832 76.481101989746094
    endloop
  endfacet
  facet normal 0.96288682171135187 0.23090207658488748 0.13976122353284587
    outer loop
      vertex 34.336936950683594 17.912935256958008 114.18085479736328
      vertex 37.265289306640625 18.124832153320313 93.655853271484375
      vertex 32.464916229248047 28.418720245361328 109.72136688232422
    endloop
  endfacet
  facet normal -0.86724453552308856 -0.14305445604087047 -0.47688818208485007
    outer loop
      vertex -12.78557014465332 1.3565772771835327 29.177402496337891
      vertex -7.1356124877929687 -15.087037086486816 23.835348129272461
      vertex -12.379159927368164 -22.47796630859375 35.588088989257813
    endloop
  endfacet
  facet normal 0.67385305489246283 0.61886630017473199 0.40364162684259158
    outer loop
      vertex 58.063907623291016 10.914826393127441 65.162261962890625
      vertex 76.141288757324219 -2.2162666320800781 55.115955352783203
      vertex 69.396919250488281 13.08585262298584 42.913913726806641
    endloop
  endfacet
  facet normal 0.080003797510897076 -0.027617485607311365 0.99641189619181358
    outer loop
      vertex -10.808863639831543 -11.706113815307617 92.397010803222656
      vertex 10.559629440307617 -5.4138026237487793 90.855697631835937
      vertex 0.89967817068099976 5.5582394599914551 91.9354248046875
    endloop
  endfacet
  facet normal -0.99536231495238048 -0.029885699910624536 0.091436901267980097
    outer loop
      vertex -22.634389877319336 -9.1382484436035156 56.718578338623047
      vertex -21.015909194946289 -31.928585052490234 66.888099670410156
      vertex -20.04493522644043 -4.704796314239502 86.355873107910156
    endloop
  endfacet
  facet normal 0.91822527929637143 0.39590469656467431 -0.01103665253299361
    outer loop
      vertex 76.141288757324219 -2.2162666320800781 55.115955352783203
      vertex 81.71759033203125 -16.088146209716797 21.442592620849609
      vertex 69.396919250488281 13.08585262298584 42.913913726806641
    endloop
  endfacet
  facet normal -0.24084549596906288 0.87753006589548066 0.41464976850456536
    outer loop
      vertex 11.280882835388184 11.299230575561523 68.268447875976563
      vertex -2.9923422336578369 20.159097671508789 41.227695465087891
      vertex -13.30125904083252 8.4404802322387695 60.040157318115234
    endloop
  endfacet
  facet normal -0.68242394472860723 -0.71867529946634123 -0.13342928313534422
    outer loop
      vertex 16.296308517456055 -30.711380004882812 28.901666641235352
      vertex 8.8054018020629883 -21.868801116943359 19.586103439331055
      vertex 22.053047180175781 -32.517787933349609 9.1884860992431641
    endloop
  endfacet
  facet normal -0.47064177948311792 -0.58999764260498888 0.6560480905585504
    outer loop
      vertex -3.4872303009033203 -24.072977066040039 86.527694702148438
      vertex -10.808863639831543 -11.706113815307617 92.397010803222656
      vertex -21.015909194946289 -31.928585052490234 66.888099670410156
    endloop
  endfacet
  facet normal -0.32507006200586674 -0.14675105122780541 0.93423422317480742
    outer loop
      vertex 53.508636474609375 -5.9375357627868652 75.999549865722656
      vertex 29.236949920654297 1.3722803592681885 68.702369689941406
      vertex 27.161108016967773 -20.210508346557617 64.589813232421875
    endloop
  endfacet
  facet normal -0.0020081105737362326 0.019274773613832494 -0.99981220766404888
    outer loop
      vertex 12.271329879760742 18.421852111816406 6.2923035621643066
      vertex 58.091053009033203 10.409070014953613 6.0458016395568848
      vertex -3.7020511627197266 -25.976982116699219 5.4684476852416992
    endloop
  endfacet
  facet normal -0.52875400363586078 0.81526509009747627 -0.23613986640845291
    outer loop
      vertex 21.050880432128906 14.74404239654541 31.485105514526367
      vertex 33.840103149414063 18.084245681762695 14.379981994628906
      vertex 9.1238613128662109 3.2858524322509766 18.632539749145508
    endloop
  endfacet
  facet normal -0.64597345272167273 -0.74393650024520841 0.17110459368980035
    outer loop
      vertex -4.7117795944213867 -24.598978042602539 55.313018798828125
      vertex -12.379159927368164 -22.47796630859375 35.588088989257813
      vertex -1.1451129913330078 -31.083551406860352 40.584373474121094
    endloop
  endfacet
  facet normal -0.41264143300522488 0.84135282783395049 -0.34907372697355732
    outer loop
      vertex 0.89967817068099976 5.5582394599914551 91.9354248046875
      vertex 32.464916229248047 28.418720245361328 109.72136688232422
      vertex 12.370729446411133 4.772282600402832 76.481101989746094
    endloop
  endfacet
  facet normal 0.72332136252506851 -0.48783434698262762 -0.48869607776092477
    outer loop
      vertex 73.908218383789063 -11.438033103942871 5.2419910430908203
      vertex 81.71759033203125 -16.088146209716797 21.442592620849609
      vertex 61.625209808349609 -29.336711883544922 4.9289698600769043
    endloop
  endfacet
  facet normal 0.62015414396817425 0.29881555847055302 0.72533998906377173
    outer loop
      vertex 76.141288757324219 -2.2162666320800781 55.115955352783203
      vertex 58.063907623291016 10.914826393127441 65.162261962890625
      vertex 53.508636474609375 -5.9375357627868652 75.999549865722656
    endloop
  endfacet
  facet normal 0.67966608217164592 -0.018533375471986184 0.73328748164622315
    outer loop
      vertex 76.141288757324219 -2.2162666320800781 55.115955352783203
      vertex 53.508636474609375 -5.9375357627868652 75.999549865722656
      vertex 68.730728149414063 -25.21800422668457 61.403266906738281
    endloop
  endfacet
  facet normal -0.8662353208542769 0.48362303033580872 -0.12547961361630516
    outer loop
      vertex -22.634389877319336 -9.1382484436035156 56.718578338623047
      vertex -13.30125904083252 8.4404802322387695 60.040157318115234
      vertex -12.78557014465332 1.3565772771835327 29.177402496337891
    endloop
  endfacet
  facet normal -0.66352654083093088 0.6508120063063757 -0.3690206797191844
    outer loop
      vertex 31.973684310913086 29.580570220947266 38.011081695556641
      vertex 33.840103149414063 18.084245681762695 14.379981994628906
      vertex 21.050880432128906 14.74404239654541 31.485105514526367
    endloop
  endfacet
  facet normal -0.021381751698058053 -0.80035188070755514 0.59914913647789059
    outer loop
      vertex -4.7117795944213867 -24.598978042602539 55.313018798828125
      vertex 21.178251266479492 -29.158851623535156 50.145809173583984
      vertex 13.977300643920898 -17.521718978881836 65.433876037597656
    endloop
  endfacet
  facet normal -0.38855142361470452 -0.42265948380417973 0.81877148946294587
    outer loop
      vertex 10.559629440307617 -5.4138026237487793 90.855697631835937
      vertex 34.336936950683594 17.912935256958008 114.18085479736328
      vertex 0.89967817068099976 5.5582394599914551 91.9354248046875
    endloop
  endfacet
  facet normal 0.21593975412799649 0.69405767927880435 0.68677067527760738
    outer loop
      vertex 69.396919250488281 13.08585262298584 42.913913726806641
      vertex 31.973684310913086 29.580570220947266 38.011081695556641
      vertex 34.370590209960938 19.131738662719727 47.817127227783203
    endloop
  endfacet
  facet normal 0.52608085857856302 0.69841046031008769 0.48524402022765128
    outer loop
      vertex -1.0522964000701904 13.262042999267578 78.814483642578125
      vertex 12.370729446411133 4.772282600402832 76.481101989746094
      vertex 11.280882835388184 11.299230575561523 68.268447875976563
    endloop
  endfacet
  facet normal -0.92840980211084534 0.33087754017275806 0.16904228096463286
    outer loop
      vertex -3.7020511627197266 -25.976982116699219 5.4684476852416992
      vertex 9.1238613128662109 3.2858524322509766 18.632539749145508
      vertex 12.271329879760742 18.421852111816406 6.2923035621643066
    endloop
  endfacet
  facet normal 0.83646437411630425 -0.40910341381584941 -0.36463920200444372
    outer loop
      vertex 0.89967817068099976 5.5582394599914551 91.9354248046875
      vertex -1.0522964000701904 13.262042999267578 78.814483642578125
      vertex 20.878894805908203 43.497920989990234 95.200706481933594
    endloop
  endfacet
  facet normal -0.069830767010773828 0.52551187660658416 0.84791563939115622
    outer loop
      vertex 58.063907623291016 10.914826393127441 65.162261962890625
      vertex 32.650836944580078 16.574064254760742 59.561927795410156
      vertex 29.236949920654297 1.3722803592681885 68.702369689941406
    endloop
  endfacet
  facet normal 0.88549880234279865 -0.46347105448846942 -0.032961381961553127
    outer loop
      vertex 20.878894805908203 43.497920989990234 95.200706481933594
      vertex 19.201967239379883 39.369247436523438 108.20390319824219
      vertex 0.89967817068099976 5.5582394599914551 91.9354248046875
    endloop
  endfacet
  facet normal 0.69271718239451363 -0.61053510658119392 0.38391377788156628
    outer loop
      vertex -3.4872303009033203 -24.072977066040039 86.527694702148438
      vertex 13.977300643920898 -17.521718978881836 65.433876037597656
      vertex 10.559629440307617 -5.4138026237487793 90.855697631835937
    endloop
  endfacet
  facet normal 0.18852603188437259 -0.95304277433154205 -0.23699663625539108
    outer loop
      vertex 30.370773315429688 -43.199977874755859 35.815528869628906
      vertex 61.625209808349609 -29.336711883544922 4.9289698600769043
      vertex 52.840641021728516 -40.090381622314453 41.185127258300781
    endloop
  endfacet
  facet normal -0.0068415063007626785 0.02747976925476351 -0.99959894761511314
    outer loop
      vertex -3.7020511627197266 -25.976982116699219 5.4684476852416992
      vertex 58.091053009033203 10.409070014953613 6.0458016395568848
      vertex 61.625209808349609 -29.336711883544922 4.9289698600769043
    endloop
  endfacet
  facet normal 0.65488659741011823 -0.75464558660223513 0.040417609458829711
    outer loop
      vertex 68.730728149414063 -25.21800422668457 61.403266906738281
      vertex 52.840641021728516 -40.090381622314453 41.185127258300781
      vertex 81.71759033203125 -16.088146209716797 21.442592620849609
    endloop
  endfacet
  facet normal -0.085256430242003065 -0.91934157717627174 0.38411249078549364
    outer loop
      vertex 21.178251266479492 -29.158851623535156 50.145809173583984
      vertex -4.7117795944213867 -24.598978042602539 55.313018798828125
      vertex -1.1451129913330078 -31.083551406860352 40.584373474121094
    endloop
  endfacet
  facet normal -0.010394512448771114 0.97736191091981461 0.21131883303227103
    outer loop
      vertex -2.9923422336578369 20.159097671508789 41.227695465087891
      vertex 32.650836944580078 16.574064254760742 59.561927795410156
      vertex 34.370590209960938 19.131738662719727 47.817127227783203
    endloop
  endfacet
  facet normal -0.4397225795460617 -0.67051779025263059 0.59753656456495352
    outer loop
      vertex 27.161108016967773 -20.210508346557617 64.589813232421875
      vertex 21.178251266479492 -29.158851623535156 50.145809173583984
      vertex 45.430931091308594 -27.35106086730957 70.021759033203125
    endloop
  endfacet
  facet normal -0.3203685917820121 -0.80218916187840072 -0.50384175488385197
    outer loop
      vertex -1.1451129913330078 -31.083551406860352 40.584373474121094
      vertex 8.8054018020629883 -21.868801116943359 19.586103439331055
      vertex 16.296308517456055 -30.711380004882812 28.901666641235352
    endloop
  endfacet
  facet normal -0.3860552729933312 0.25553572136951674 0.8863762301067224
    outer loop
      vertex -20.04493522644043 -4.704796314239502 86.355873107910156
      vertex -10.808863639831543 -11.706113815307617 92.397010803222656
      vertex -9.2384471893310547 9.5671892166137695 86.94805908203125
    endloop
  endfacet
  facet normal 0.58243499330834902 -0.77629095860416841 0.24112616232861284
    outer loop
      vertex -3.4872303009033203 -24.072977066040039 86.527694702148438
      vertex -6.3111486434936523 -33.455856323242187 63.141201019287109
      vertex 13.977300643920898 -17.521718978881836 65.433876037597656
    endloop
  endfacet
  facet normal 0.24304444689080096 -0.86266346765911239 0.44355511315044061
    outer loop
      vertex 68.730728149414063 -25.21800422668457 61.403266906738281
      vertex 45.430931091308594 -27.35106086730957 70.021759033203125
      vertex 52.840641021728516 -40.090381622314453 41.185127258300781
    endloop
  endfacet
  facet normal -0.36818663102569338 -0.77114314162360653 0.51940048119040494
    outer loop
      vertex 45.430931091308594 -27.35106086730957 70.021759033203125
      vertex 21.178251266479492 -29.158851623535156 50.145809173583984
      vertex 30.370773315429688 -43.199977874755859 35.815528869628906
    endloop
  endfacet
  facet normal -0.79552735503041827 0.59841457981230328 0.095059024118550661
    outer loop
      vertex -9.2384471893310547 9.5671892166137695 86.94805908203125
      vertex -13.30125904083252 8.4404802322387695 60.040157318115234
      vertex -20.04493522644043 -4.704796314239502 86.355873107910156
    endloop
  endfacet
  facet normal 0.9914980294173712 0.0070669176627995867 0.12992965918610222
    outer loop
      vertex 10.559629440307617 -5.4138026237487793 90.855697631835937
      vertex 13.977300643920898 -17.521718978881836 65.433876037597656
      vertex 12.370729446411133 4.772282600402832 76.481101989746094
    endloop
  endfacet
  facet normal -0.70476386774257216 -0.67719901652058645 0.2114459333921577
    outer loop
      vertex 21.178251266479492 -29.158851623535156 50.145809173583984
      vertex 16.296308517456055 -30.711380004882812 28.901666641235352
      vertex 30.370773315429688 -43.199977874755859 35.815528869628906
    endloop
  endfacet
  facet normal 0.23457105537295109 0.46169044083443983 0.85546382554922829
    outer loop
      vertex 29.236949920654297 1.3722803592681885 68.702369689941406
      vertex 32.650836944580078 16.574064254760742 59.561927795410156
      vertex 11.280882835388184 11.299230575561523 68.268447875976563
    endloop
  endfacet
  facet normal -0.076972744262372828 0.77863826769281508 -0.62273400800426126
    outer loop
      vertex -2.9923422336578369 20.159097671508789 41.227695465087891
      vertex 21.050880432128906 14.74404239654541 31.485105514526367
      vertex 9.1238613128662109 3.2858524322509766 18.632539749145508
    endloop
  endfacet
  facet normal -0.59557319656288898 0.2216255185431604 0.77212349858448026
    outer loop
      vertex 32.464916229248047 28.418720245361328 109.72136688232422
      vertex 0.89967817068099976 5.5582394599914551 91.9354248046875
      vertex 34.336936950683594 17.912935256958008 114.18085479736328
    endloop
  endfacet
  facet normal -0.39389487272974938 0.91891565369466044 0.020996443320940104
    outer loop
      vertex -1.0522964000701904 13.262042999267578 78.814483642578125
      vertex -13.30125904083252 8.4404802322387695 60.040157318115234
      vertex -9.2384471893310547 9.5671892166137695 86.94805908203125
    endloop
  endfacet
  facet normal -0.77289406080217993 0.33084865481898795 0.54145538909607538
    outer loop
      vertex 34.370590209960938 19.131738662719727 47.817127227783203
      vertex 31.973684310913086 29.580570220947266 38.011081695556641
      vertex 21.050880432128906 14.74404239654541 31.485105514526367
    endloop
  endfacet
  facet normal 0.16228918967036698 0.9589385040083771 0.23259227082237971
    outer loop
      vertex 32.650836944580078 16.574064254760742 59.561927795410156
      vertex 58.063907623291016 10.914826393127441 65.162261962890625
      vertex 34.370590209960938 19.131738662719727 47.817127227783203
    endloop
  endfacet
  facet normal 0.41678100047896055 0.88843087469809912 -0.19231271024799007
    outer loop
      vertex 69.396919250488281 13.08585262298584 42.913913726806641
      vertex 58.091053009033203 10.409070014953613 6.0458016395568848
      vertex 31.973684310913086 29.580570220947266 38.011081695556641
    endloop
  endfacet
  facet normal 0.028188682934614209 -0.91165437019436035 0.40998988702154088
    outer loop
      vertex 45.430931091308594 -27.35106086730957 70.021759033203125
      vertex 30.370773315429688 -43.199977874755859 35.815528869628906
      vertex 52.840641021728516 -40.090381622314453 41.185127258300781
    endloop
  endfacet
  facet normal 0.3978900667607832 0.74322263000584832 0.53786951672342354
    outer loop
      vertex 11.280882835388184 11.299230575561523 68.268447875976563
      vertex 12.370729446411133 4.772282600402832 76.481101989746094
      vertex 29.236949920654297 1.3722803592681885 68.702369689941406
    endloop
  endfacet
  facet normal 0.35176528227182136 -0.37243884300147417 0.8588076003459385
    outer loop
      vertex 68.730728149414063 -25.21800422668457 61.403266906738281
      vertex 53.508636474609375 -5.9375357627868652 75.999549865722656
      vertex 45.430931091308594 -27.35106086730957 70.021759033203125
    endloop
  endfacet
  facet normal -0.28040070230271397 -0.82609893585015437 0.48881079605036076
    outer loop
      vertex 8.8054018020629883 -21.868801116943359 19.586103439331055
      vertex -3.7020511627197266 -25.976982116699219 5.4684476852416992
      vertex 22.053047180175781 -32.517787933349609 9.1884860992431641
    endloop
  endfacet
  facet normal 0.54349065751071779 -0.60886798187000135 -0.57783880611475003
    outer loop
      vertex -4.7117795944213867 -24.598978042602539 55.313018798828125
      vertex 13.977300643920898 -17.521718978881836 65.433876037597656
      vertex -6.3111486434936523 -33.455856323242187 63.141201019287109
    endloop
  endfacet
  facet normal -0.037778082161316111 0.97353967034966704 -0.22537374905626045
    outer loop
      vertex -1.0522964000701904 13.262042999267578 78.814483642578125
      vertex 11.280882835388184 11.299230575561523 68.268447875976563
      vertex -13.30125904083252 8.4404802322387695 60.040157318115234
    endloop
  endfacet
  facet normal -0.63655608283346654 -0.75305122742776043 0.16646381672080016
    outer loop
      vertex -22.634389877319336 -9.1382484436035156 56.718578338623047
      vertex -12.379159927368164 -22.47796630859375 35.588088989257813
      vertex -4.7117795944213867 -24.598978042602539 55.313018798828125
    endloop
  endfacet
  facet normal 0.060695067462883147 -0.99641875927221357 0.058870747881258595
    outer loop
      vertex 16.296308517456055 -30.711380004882812 28.901666641235352
      vertex 21.178251266479492 -29.158851623535156 50.145809173583984
      vertex -1.1451129913330078 -31.083551406860352 40.584373474121094
    endloop
  endfacet
  facet normal -0.73568854650252713 0.3384643264595335 -0.58668923823374597
    outer loop
      vertex 5.6921901702880859 40.942535400390625 86.326156616210937
      vertex -1.0522964000701904 13.262042999267578 78.814483642578125
      vertex -9.2384471893310547 9.5671892166137695 86.94805908203125
    endloop
  endfacet
  facet normal -0.92038197306680813 -0.11612047376766231 -0.37338058228250537
    outer loop
      vertex -22.634389877319336 -9.1382484436035156 56.718578338623047
      vertex -12.78557014465332 1.3565772771835327 29.177402496337891
      vertex -12.379159927368164 -22.47796630859375 35.588088989257813
    endloop
  endfacet
  facet normal 0.16696259542798703 -0.34033012237501614 0.92536419831985972
    outer loop
      vertex 10.559629440307617 -5.4138026237487793 90.855697631835937
      vertex -10.808863639831543 -11.706113815307617 92.397010803222656
      vertex -3.4872303009033203 -24.072977066040039 86.527694702148438
    endloop
  endfacet
  facet normal -0.90142956888742698 0.42762618704595617 -0.0675320404546189
    outer loop
      vertex 3.9686708450317383 41.071620941162109 110.14939117431641
      vertex 5.6921901702880859 40.942535400390625 86.326156616210937
      vertex -9.2384471893310547 9.5671892166137695 86.94805908203125
    endloop
  endfacet
  facet normal -0.75301245793851146 0.034442720054495612 0.65710420575784567
    outer loop
      vertex 9.1238613128662109 3.2858524322509766 18.632539749145508
      vertex -3.7020511627197266 -25.976982116699219 5.4684476852416992
      vertex 8.8054018020629883 -21.868801116943359 19.586103439331055
    endloop
  endfacet
  facet normal -0.38076266485643256 0.63131468215384523 -0.67561939370359814
    outer loop
      vertex -12.78557014465332 1.3565772771835327 29.177402496337891
      vertex -2.9923422336578369 20.159097671508789 41.227695465087891
      vertex 9.1238613128662109 3.2858524322509766 18.632539749145508
    endloop
  endfacet
  facet normal -0.44225728497167938 -0.6570341700266068 -0.61050355716156701
    outer loop
      vertex -12.379159927368164 -22.47796630859375 35.588088989257813
      vertex -7.1356124877929687 -15.087037086486816 23.835348129272461
      vertex 8.8054018020629883 -21.868801116943359 19.586103439331055
    endloop
  endfacet
  facet normal 0.59913647989154339 -0.79548416023186141 -0.090776810273220057
    outer loop
      vertex 61.625209808349609 -29.336711883544922 4.9289698600769043
      vertex 81.71759033203125 -16.088146209716797 21.442592620849609
      vertex 52.840641021728516 -40.090381622314453 41.185127258300781
    endloop
  endfacet
  facet normal 0.48641884357517179 0.11646917333341579 -0.86592819579802538
    outer loop
      vertex 5.6921901702880859 40.942535400390625 86.326156616210937
      vertex 20.878894805908203 43.497920989990234 95.200706481933594
      vertex -1.0522964000701904 13.262042999267578 78.814483642578125
    endloop
  endfacet
  facet normal -0.43936265252026824 0.13743592927570777 -0.88773409583865626
    outer loop
      vertex -12.78557014465332 1.3565772771835327 29.177402496337891
      vertex 9.1238613128662109 3.2858524322509766 18.632539749145508
      vertex -7.1356124877929687 -15.087037086486816 23.835348129272461
    endloop
  endfacet
  facet normal -0.52170038981911837 -0.35320465906666537 0.77657914733540223
    outer loop
      vertex 3.9686708450317383 41.071620941162109 110.14939117431641
      vertex -9.2384471893310547 9.5671892166137695 86.94805908203125
      vertex 0.89967817068099976 5.5582394599914551 91.9354248046875
    endloop
  endfacet
  facet normal 0.37471048822116215 -0.20819309353886523 0.90346426925461509
    outer loop
      vertex 29.236949920654297 1.3722803592681885 68.702369689941406
      vertex 12.370729446411133 4.772282600402832 76.481101989746094
      vertex 27.161108016967773 -20.210508346557617 64.589813232421875
    endloop
  endfacet
  facet normal -0.62789866650253612 -0.77007808994867655 -0.1127962764692836
    outer loop
      vertex 30.370773315429688 -43.199977874755859 35.815528869628906
      vertex 16.296308517456055 -30.711380004882812 28.901666641235352
      vertex 22.053047180175781 -32.517787933349609 9.1884860992431641
    endloop
  endfacet
  facet normal -0.69476577688841823 -0.40180356429350073 0.59653533925968838
    outer loop
      vertex -20.04493522644043 -4.704796314239502 86.355873107910156
      vertex -21.015909194946289 -31.928585052490234 66.888099670410156
      vertex -10.808863639831543 -11.706113815307617 92.397010803222656
    endloop
  endfacet
  facet normal 0.63057947303312523 -0.66851837080380394 -0.39427492449697299
    outer loop
      vertex 10.559629440307617 -5.4138026237487793 90.855697631835937
      vertex 12.370729446411133 4.772282600402832 76.481101989746094
      vertex 37.265289306640625 18.124832153320313 93.655853271484375
    endloop
  endfacet
  facet normal -0.033626413084899186 -0.44569601831824851 0.89455258291410844
    outer loop
      vertex 12.370729446411133 4.772282600402832 76.481101989746094
      vertex 13.977300643920898 -17.521718978881836 65.433876037597656
      vertex 27.161108016967773 -20.210508346557617 64.589813232421875
    endloop
  endfacet
  facet normal 0.65374120695190685 -0.7518714673598178 0.085508659814422988
    outer loop
      vertex 37.265289306640625 18.124832153320313 93.655853271484375
      vertex 34.336936950683594 17.912935256958008 114.18085479736328
      vertex 10.559629440307617 -5.4138026237487793 90.855697631835937
    endloop
  endfacet
  facet normal -0.27052927819848671 -0.033048091291145422 -0.96214434119804382
    outer loop
      vertex 9.1238613128662109 3.2858524322509766 18.632539749145508
      vertex 8.8054018020629883 -21.868801116943359 19.586103439331055
      vertex -7.1356124877929687 -15.087037086486816 23.835348129272461
    endloop
  endfacet
  facet normal 0.93912825834544045 -0.23373356881245386 0.25180693633665746
    outer loop
      vertex 68.730728149414063 -25.21800422668457 61.403266906738281
      vertex 81.71759033203125 -16.088146209716797 21.442592620849609
      vertex 76.141288757324219 -2.2162666320800781 55.115955352783203
    endloop
  endfacet
  facet normal -0.40637956157861171 -0.3962402108341842 -0.823316067649148
    outer loop
      vertex -4.7117795944213867 -24.598978042602539 55.313018798828125
      vertex -21.015909194946289 -31.928585052490234 66.888099670410156
      vertex -22.634389877319336 -9.1382484436035156 56.718578338623047
    endloop
  endfacet
  facet normal 0.13734192991964284 0.89493603703653068 -0.42453113419312027
    outer loop
      vertex 31.973684310913086 29.580570220947266 38.011081695556641
      vertex 58.091053009033203 10.409070014953613 6.0458016395568848
      vertex 33.840103149414063 18.084245681762695 14.379981994628906
    endloop
  endfacet
  facet normal 0.033256693721477638 -0.92395265191726028 -0.38105838048490381
    outer loop
      vertex 30.370773315429688 -43.199977874755859 35.815528869628906
      vertex 22.053047180175781 -32.517787933349609 9.1884860992431641
      vertex 61.625209808349609 -29.336711883544922 4.9289698600769043
    endloop
  endfacet
  facet normal -0.36584917209856582 -0.77594211316534345 -0.51387568563933383
    outer loop
      vertex -12.379159927368164 -22.47796630859375 35.588088989257813
      vertex 8.8054018020629883 -21.868801116943359 19.586103439331055
      vertex -1.1451129913330078 -31.083551406860352 40.584373474121094
    endloop
  endfacet
  facet normal -0.086958772069592086 0.93220256606937268 0.3513353779137901
    outer loop
      vertex 32.650836944580078 16.574064254760742 59.561927795410156
      vertex -2.9923422336578369 20.159097671508789 41.227695465087891
      vertex 11.280882835388184 11.299230575561523 68.268447875976563
    endloop
  endfacet
  facet normal -0.2541467214073177 -0.61433829973162291 -0.74699256855792751
    outer loop
      vertex -4.7117795944213867 -24.598978042602539 55.313018798828125
      vertex -6.3111486434936523 -33.455856323242187 63.141201019287109
      vertex -21.015909194946289 -31.928585052490234 66.888099670410156
    endloop
  endfacet
  facet normal 0.15725342473359238 0.91095842241539238 -0.38134775866656917
    outer loop
      vertex 33.840103149414063 18.084245681762695 14.379981994628906
      vertex 58.091053009033203 10.409070014953613 6.0458016395568848
      vertex 12.271329879760742 18.421852111816406 6.2923035621643066
    endloop
  endfacet
  facet normal -0.8837736821146136 0.46785875357461232 0.0072294885841315904
    outer loop
      vertex -20.04493522644043 -4.704796314239502 86.355873107910156
      vertex -13.30125904083252 8.4404802322387695 60.040157318115234
      vertex -22.634389877319336 -9.1382484436035156 56.718578338623047
    endloop
  endfacet
  facet normal -0.0014682559752228987 -0.92802688504594677 0.37251032852299354
    outer loop
      vertex -6.3111486434936523 -33.455856323242187 63.141201019287109
      vertex -3.4872303009033203 -24.072977066040039 86.527694702148438
      vertex -21.015909194946289 -31.928585052490234 66.888099670410156
    endloop
  endfacet
  facet normal 0.06176977540460505 -0.45970555802782048 0.88592059168121529
    outer loop
      vertex 3.9686708450317383 41.071620941162109 110.14939117431641
      vertex 0.89967817068099976 5.5582394599914551 91.9354248046875
      vertex 19.201967239379883 39.369247436523438 108.20390319824219
    endloop
  endfacet
  facet normal -0.037528470333547469 -0.60158681330404884 -0.79792538496597765
    outer loop
      vertex 22.053047180175781 -32.517787933349609 9.1884860992431641
      vertex -3.7020511627197266 -25.976982116699219 5.4684476852416992
      vertex 61.625209808349609 -29.336711883544922 4.9289698600769043
    endloop
  endfacet
  facet normal 0.78753265776782488 0.57803161396784253 -0.21370953699560799
    outer loop
      vertex 58.091053009033203 10.409070014953613 6.0458016395568848
      vertex 81.71759033203125 -16.088146209716797 21.442592620849609
      vertex 73.908218383789063 -11.438033103942871 5.2419910430908203
    endloop
  endfacet
  facet normal -0.33077891871330434 -0.13592052804180993 0.93386879002978396
    outer loop
      vertex 53.508636474609375 -5.9375357627868652 75.999549865722656
      vertex 27.161108016967773 -20.210508346557617 64.589813232421875
      vertex 45.430931091308594 -27.35106086730957 70.021759033203125
    endloop
  endfacet
  facet normal -0.84097649113873685 0.52412548930726055 -0.13435405766259048
    outer loop
      vertex -13.30125904083252 8.4404802322387695 60.040157318115234
      vertex -2.9923422336578369 20.159097671508789 41.227695465087891
      vertex -12.78557014465332 1.3565772771835327 29.177402496337891
    endloop
  endfacet
  facet normal -0.081911726740698118 0.55463751301965936 0.82805054083293983
    outer loop
      vertex 58.063907623291016 10.914826393127441 65.162261962890625
      vertex 29.236949920654297 1.3722803592681885 68.702369689941406
      vertex 53.508636474609375 -5.9375357627868652 75.999549865722656
    endloop
  endfacet
  facet normal -0.013682196849883466 0.026869994066434654 -0.99954529707674133
    outer loop
      vertex 58.091053009033203 10.409070014953613 6.0458016395568848
      vertex 73.908218383789063 -11.438033103942871 5.2419910430908203
      vertex 61.625209808349609 -29.336711883544922 4.9289698600769043
    endloop
  endfacet
  facet normal -0.34297353990251006 0.25676006600663986 0.90357258669738727
    outer loop
      vertex -10.808863639831543 -11.706113815307617 92.397010803222656
      vertex 0.89967817068099976 5.5582394599914551 91.9354248046875
      vertex -9.2384471893310547 9.5671892166137695 86.94805908203125
    endloop
  endfacet
  facet normal 0.19298902821830288 0.96219285029135848 0.19219821496451608
    outer loop
      vertex 58.063907623291016 10.914826393127441 65.162261962890625
      vertex 69.396919250488281 13.08585262298584 42.913913726806641
      vertex 34.370590209960938 19.131738662719727 47.817127227783203
    endloop
  endfacet
endsolid OBJECT
