#Produced by polyHédronisme http://levskaya.github.com/polyhedronisme
group kndC
#vertices
v 6.979242650480318e-18 -8.724053313100398e-19 0.9999999999999999
v 0.9999999999999999 -8.724053313100398e-19 -8.505951980272887e-18
v 6.979242650480318e-18 0.9999999999999999 -8.505951980272887e-18
v -0.9999999999999999 -8.724053313100398e-19 -8.505951980272887e-18
v 6.979242650480318e-18 -0.9999999999999999 -8.505951980272887e-18
v 6.979242650480318e-18 -8.724053313100398e-19 -0.9999999999999999
v 0.5033426866978898 0.0033426866978899126 0.003342686697889905
v 0.00334268669788992 0.5033426866978898 0.003342686697889905
v 0.00334268669788992 0.0033426866978899126 0.5033426866978898
v -0.0033426866978899065 0.5033426866978898 0.003342686697889905
v -0.5033426866978898 0.0033426866978899126 0.003342686697889905
v -0.0033426866978899065 0.0033426866978899126 0.5033426866978898
v -0.5033426866978898 -0.003342686697889914 0.003342686697889905
v -0.0033426866978899065 -0.5033426866978898 0.003342686697889905
v -0.0033426866978899065 -0.003342686697889914 0.5033426866978898
v 0.00334268669788992 -0.5033426866978898 0.003342686697889905
v 0.5033426866978898 -0.003342686697889914 0.003342686697889905
v 0.00334268669788992 -0.003342686697889914 0.5033426866978898
v 0.00334268669788992 -0.5033426866978898 -0.0033426866978899217
v 0.00334268669788992 -0.003342686697889914 -0.5033426866978898
v 0.5033426866978898 -0.003342686697889914 -0.0033426866978899217
v 0.00334268669788992 0.0033426866978899126 -0.5033426866978898
v 0.00334268669788992 0.5033426866978898 -0.0033426866978899217
v 0.5033426866978898 0.0033426866978899126 -0.0033426866978899217
v -0.0033426866978899065 0.0033426866978899126 -0.5033426866978898
v -0.5033426866978898 0.0033426866978899126 -0.0033426866978899217
v -0.0033426866978899065 0.5033426866978898 -0.0033426866978899217
v -0.0033426866978899065 -0.003342686697889914 -0.5033426866978898
v -0.0033426866978899065 -0.5033426866978898 -0.0033426866978899217
v -0.5033426866978898 -0.003342686697889914 -0.0033426866978899217
v 0.37762971140108087 0.14310756532190466 0.37762971140108087
v 0.25167134334894486 0.25167134334894486 0.2516713433489449
v 0.37762971140108087 0.37762971140108087 0.14310756532190466
v 0.14310756532190466 0.37762971140108087 0.37762971140108087
v -0.14310756532190466 0.37762971140108087 0.37762971140108087
v -0.25167134334894486 0.25167134334894486 0.2516713433489449
v -0.37762971140108087 0.37762971140108087 0.14310756532190466
v -0.37762971140108087 0.14310756532190466 0.37762971140108087
v -0.37762971140108087 -0.14310756532190466 0.37762971140108087
v -0.25167134334894486 -0.25167134334894486 0.2516713433489449
v -0.37762971140108087 -0.37762971140108087 0.14310756532190466
v -0.14310756532190466 -0.37762971140108087 0.37762971140108087
v 0.14310756532190466 -0.37762971140108087 0.37762971140108087
v 0.25167134334894486 -0.25167134334894486 0.2516713433489449
v 0.37762971140108087 -0.37762971140108087 0.14310756532190466
v 0.37762971140108087 -0.14310756532190466 0.37762971140108087
v 0.37762971140108087 -0.37762971140108087 -0.14310756532190466
v 0.2516713433489449 -0.25167134334894486 -0.25167134334894486
v 0.14310756532190466 -0.37762971140108087 -0.37762971140108087
v 0.37762971140108087 -0.14310756532190466 -0.37762971140108087
v 0.37762971140108087 0.14310756532190466 -0.37762971140108087
v 0.2516713433489449 0.25167134334894486 -0.25167134334894486
v 0.14310756532190466 0.37762971140108087 -0.37762971140108087
v 0.37762971140108087 0.37762971140108087 -0.14310756532190466
v -0.14310756532190466 0.37762971140108087 -0.37762971140108087
v -0.25167134334894486 0.2516713433489449 -0.25167134334894486
v -0.37762971140108087 0.14310756532190466 -0.37762971140108087
v -0.37762971140108087 0.37762971140108087 -0.14310756532190466
v -0.37762971140108087 -0.14310756532190466 -0.37762971140108087
v -0.2516713433489449 -0.25167134334894486 -0.25167134334894486
v -0.14310756532190466 -0.37762971140108087 -0.37762971140108087
v -0.37762971140108087 -0.37762971140108087 -0.14310756532190466
#normal vector defs 
vn -0.9372440083234107 -0.34865165398732256 0.00396144339491917
vn 0.9372440083234107 -0.34865165398732256 0.003961443394919182
vn 0.34865165398732256 0.9372440083234107 0.003961443394919182
vn -0.34865165398732256 0.9372440083234107 0.003961443394919182
vn 0.34865165398732256 -0.9372440083234107 0.003961443394919182
vn -0.34865165398732256 -0.9372440083234107 0.003961443394919182
vn -0.7706405888634267 0.4506179550329918 0.4506179550329918
vn 0.7706405888634267 0.4506179550329918 0.4506179550329918
vn -0.9372440083234107 0.34865165398732256 0.00396144339491917
vn 0.9372440083234107 0.34865165398732256 0.003961443394919182
vn -0.4506179550329918 0.7706405888634267 0.4506179550329918
vn 0.4506179550329918 0.7706405888634267 0.4506179550329918
vn -0.4506179550329918 -0.7706405888634267 0.4506179550329918
vn 0.4506179550329918 -0.7706405888634267 0.4506179550329918
vn -0.7827114490126023 -0.4400924832263058 -0.4400924832263058
vn 0.7827114490126024 -0.4400924832263058 -0.4400924832263058
vn -0.009517747178029305 0.7070747529394099 0.7070747529394099
vn 0.009517747178029305 0.7070747529394098 0.7070747529394098
vn -0.9372440083234107 0.00396144339491917 -0.34865165398732256
vn 0.9372440083234107 0.003961443394919182 -0.34865165398732256
vn 0.4400924832263058 0.7827114490126024 -0.4400924832263058
vn -0.7706405888634267 -0.4506179550329918 0.4506179550329918
vn 0.7706405888634267 -0.4506179550329918 0.4506179550329918
vn -0.4400924832263058 0.7827114490126024 -0.4400924832263058
vn 0.4400924832263058 -0.7827114490126024 -0.4400924832263058
vn -0.7070747529394098 0.009517747178029265 0.7070747529394098
vn 0.7070747529394098 0.009517747178029305 0.7070747529394098
vn -0.4400924832263058 -0.7827114490126024 -0.4400924832263058
vn 0.34865165398732256 0.00396144339491917 0.9372440083234107
vn -0.34865165398732256 0.00396144339491917 0.9372440083234107
vn -0.7070747529394098 -0.009517747178029265 0.7070747529394098
vn 0.7070747529394098 -0.009517747178029305 0.7070747529394098
vn -0.4506179550329919 0.4506179550329919 0.7706405888634268
vn -0.7827114490126023 0.4400924832263058 -0.4400924832263058
vn 0.7827114490126024 0.4400924832263058 -0.4400924832263058
vn 0.4506179550329919 0.4506179550329919 0.7706405888634268
vn -0.009517747178029305 -0.7070747529394099 0.7070747529394099
vn -0.7070747529394099 0.70707475293941 0.009517747178029461
vn 0.009517747178029305 -0.7070747529394098 0.7070747529394098
vn -0.003961443394919182 0.9372440083234107 -0.34865165398732256
vn 0.7070747529394099 0.7070747529394099 0.009517747178029501
vn 0.34865165398732256 0.003961443394919182 -0.9372440083234107
vn 0.4400924832263058 -0.4400924832263058 0.7827114490126023
vn -0.34865165398732256 0.003961443394919182 -0.9372440083234107
vn -0.4400924832263058 -0.4400924832263058 0.7827114490126023
vn -0.003961443394919182 -0.9372440083234107 -0.34865165398732256
vn 0.003961443394919182 0.9372440083234107 -0.34865165398732256
vn -0.4506179550329919 0.4506179550329919 -0.7706405888634268
vn -0.00396144339491917 -0.34865165398732256 0.9372440083234107
vn 0.003961443394919182 -0.9372440083234107 -0.34865165398732256
vn 0.4506179550329919 0.4506179550329919 -0.7706405888634268
vn 0.00396144339491917 -0.34865165398732256 0.9372440083234107
vn -0.9372440083234107 0.00396144339491917 0.34865165398732256
vn 0.9372440083234107 0.003961443394919182 0.34865165398732256
vn 0.4400924832263058 -0.4400924832263058 -0.7827114490126024
vn -0.4400924832263058 -0.4400924832263058 -0.7827114490126024
vn -0.00396144339491917 0.34865165398732256 0.9372440083234107
vn -0.7070747529394099 -0.70707475293941 0.009517747178029461
vn -0.003961443394919182 -0.34865165398732256 -0.9372440083234107
vn -0.7070747529394098 0.7070747529394098 -0.009517747178029305
vn 0.7070747529394099 -0.7070747529394099 0.009517747178029501
vn 0.00396144339491917 0.34865165398732256 0.9372440083234107
vn 0.7070747529394098 0.7070747529394098 -0.009517747178029345
vn 0.003961443394919182 -0.34865165398732256 -0.9372440083234107
vn 0.4400924832263058 0.4400924832263058 0.7827114490126023
vn -0.4400924832263058 0.4400924832263058 0.7827114490126023
vn -0.9372440083234107 -0.00396144339491917 -0.34865165398732256
vn 0.9372440083234107 -0.003961443394919182 -0.34865165398732256
vn -0.003961443394919182 0.34865165398732256 -0.9372440083234107
vn -0.4506179550329919 -0.4506179550329919 0.7706405888634268
vn -0.003961443394919182 0.9372440083234107 0.34865165398732256
vn 0.003961443394919182 0.34865165398732256 -0.9372440083234107
vn 0.4506179550329919 -0.4506179550329919 0.7706405888634268
vn -0.003961443394919182 -0.9372440083234107 0.34865165398732256
vn 0.003961443394919182 0.9372440083234107 0.34865165398732256
vn 0.4400924832263058 0.4400924832263058 -0.7827114490126024
vn 0.34865165398732256 -0.00396144339491917 0.9372440083234107
vn -0.4400924832263058 0.4400924832263058 -0.7827114490126024
vn -0.34865165398732256 -0.00396144339491917 0.9372440083234107
vn -0.7070747529394098 -0.7070747529394098 -0.009517747178029305
vn 0.003961443394919182 -0.9372440083234107 0.34865165398732256
vn -0.009517747178029345 0.7070747529394099 -0.7070747529394099
vn 0.7070747529394098 -0.7070747529394098 -0.009517747178029345
vn 0.009517747178029501 0.7070747529394099 -0.7070747529394099
vn -0.4506179550329919 -0.4506179550329919 -0.7706405888634268
vn -0.7827114490126023 -0.4400924832263058 0.4400924832263058
vn 0.7827114490126024 -0.4400924832263058 0.4400924832263058
vn 0.4506179550329919 -0.4506179550329919 -0.7706405888634268
vn -0.7070747529394099 0.009517747178029461 -0.7070747529394099
vn 0.7070747529394098 0.009517747178029345 -0.7070747529394098
vn 0.34865165398732256 -0.003961443394919182 -0.9372440083234107
vn -0.34865165398732256 -0.003961443394919182 -0.9372440083234107
vn 0.4400924832263058 0.7827114490126024 0.4400924832263058
vn -0.7070747529394098 -0.009517747178029305 -0.7070747529394098
vn 0.7070747529394098 -0.009517747178029345 -0.7070747529394098
vn -0.4400924832263058 0.7827114490126024 0.4400924832263058
vn 0.4400924832263058 -0.7827114490126024 0.4400924832263058
vn -0.7706405888634267 0.4506179550329918 -0.4506179550329918
vn 0.7706405888634267 0.4506179550329918 -0.4506179550329918
vn -0.4400924832263058 -0.7827114490126024 0.4400924832263058
vn -0.9372440083234107 -0.00396144339491917 0.34865165398732256
vn 0.9372440083234107 -0.003961443394919182 0.34865165398732256
vn -0.009517747178029501 -0.7070747529394099 -0.7070747529394099
vn 0.009517747178029501 -0.7070747529394099 -0.7070747529394099
vn -0.7827114490126023 0.4400924832263058 0.4400924832263058
vn 0.7827114490126024 0.4400924832263058 0.4400924832263058
vn -0.4506179550329918 0.7706405888634267 -0.4506179550329918
vn 0.4506179550329918 0.7706405888634267 -0.4506179550329918
vn -0.4506179550329918 -0.7706405888634267 -0.4506179550329918
vn 0.4506179550329918 -0.7706405888634267 -0.4506179550329918
vn -0.9372440083234107 -0.34865165398732256 -0.00396144339491917
vn 0.9372440083234107 -0.34865165398732256 -0.003961443394919182
vn -0.7706405888634267 -0.4506179550329918 -0.4506179550329918
vn 0.7706405888634267 -0.4506179550329918 -0.4506179550329918
vn 0.34865165398732256 0.9372440083234107 -0.003961443394919182
vn -0.34865165398732256 0.9372440083234107 -0.003961443394919182
vn 0.34865165398732256 -0.9372440083234107 -0.003961443394919182
vn -0.34865165398732256 -0.9372440083234107 -0.003961443394919182
vn -0.9372440083234107 0.34865165398732256 -0.00396144339491917
vn 0.9372440083234107 0.34865165398732256 -0.003961443394919182
#face defs 
f 1//1 35//1 12//1 
f 9//2 34//2 1//2 
f 12//3 38//3 1//3 
f 1//4 31//4 9//4 
f 1//5 39//5 15//5 
f 18//6 46//6 1//6 
f 3//7 35//7 1//7 
f 1//8 34//8 3//8 
f 15//9 42//9 1//9 
f 1//10 43//10 18//10 
f 1//11 38//11 4//11 
f 2//12 31//12 1//12 
f 4//13 39//13 1//13 
f 1//14 46//14 2//14 
f 12//15 35//15 10//15 
f 8//16 34//16 9//16 
f 10//17 36//17 12//17 
f 9//18 32//18 8//18 
f 10//19 35//19 3//19 
f 3//20 34//20 8//20 
f 11//21 38//21 12//21 
f 1//22 42//22 5//22 
f 5//23 43//23 1//23 
f 9//24 31//24 7//24 
f 15//25 39//25 13//25 
f 12//26 36//26 11//26 
f 7//27 32//27 9//27 
f 17//28 46//28 18//28 
f 3//29 37//29 10//29 
f 8//30 33//30 3//30 
f 13//31 40//31 15//31 
f 18//32 44//32 17//32 
f 4//33 37//33 3//33 
f 14//34 42//34 15//34 
f 18//35 43//35 16//35 
f 3//36 33//36 2//36 
f 15//37 40//37 14//37 
f 11//38 36//38 10//38 
f 16//39 44//39 18//39 
f 4//40 38//40 11//40 
f 8//41 32//41 7//41 
f 27//42 58//42 3//42 
f 10//43 37//43 11//43 
f 3//44 54//44 23//44 
f 7//45 33//45 8//45 
f 13//46 39//46 4//46 
f 7//47 31//47 2//47 
f 3//48 58//48 4//48 
f 11//49 37//49 4//49 
f 2//50 46//50 17//50 
f 2//51 54//51 3//51 
f 2//52 33//52 7//52 
f 3//53 55//53 27//53 
f 23//54 53//54 3//54 
f 26//55 58//55 27//55 
f 23//56 54//56 24//56 
f 4//57 41//57 13//57 
f 14//58 40//58 13//58 
f 4//59 58//59 26//59 
f 27//60 56//60 26//60 
f 17//61 44//61 16//61 
f 17//62 45//62 2//62 
f 24//63 52//63 23//63 
f 24//64 54//64 2//64 
f 13//65 41//65 14//65 
f 16//66 45//66 17//66 
f 5//67 42//67 14//67 
f 16//68 43//68 5//68 
f 30//69 62//69 4//69 
f 5//70 41//70 4//70 
f 26//71 57//71 4//71 
f 2//72 47//72 21//72 
f 2//73 45//73 5//73 
f 4//74 59//74 30//74 
f 2//75 51//75 24//75 
f 29//76 62//76 30//76 
f 14//77 41//77 5//77 
f 21//78 47//78 19//78 
f 5//79 45//79 16//79 
f 30//80 60//80 29//80 
f 21//81 50//81 2//81 
f 25//82 56//82 27//82 
f 19//83 48//83 21//83 
f 23//84 52//84 22//84 
f 4//85 62//85 5//85 
f 27//86 55//86 25//86 
f 22//87 53//87 23//87 
f 5//88 47//88 2//88 
f 26//89 56//89 25//89 
f 22//90 52//90 24//90 
f 5//91 62//91 29//91 
f 19//92 47//92 5//92 
f 25//93 57//93 26//93 
f 28//94 60//94 30//94 
f 21//95 48//95 20//95 
f 24//96 51//96 22//96 
f 30//97 59//97 28//97 
f 6//98 55//98 3//98 
f 3//99 53//99 6//99 
f 20//100 50//100 21//100 
f 29//101 61//101 5//101 
f 5//102 49//102 19//102 
f 29//103 60//103 28//103 
f 20//104 48//104 19//104 
f 28//105 61//105 29//105 
f 19//106 49//106 20//106 
f 4//107 57//107 6//107 
f 6//108 51//108 2//108 
f 6//109 59//109 4//109 
f 2//110 50//110 6//110 
f 25//111 55//111 6//111 
f 6//112 53//112 22//112 
f 5//113 61//113 6//113 
f 6//114 49//114 5//114 
f 6//115 57//115 25//115 
f 22//116 51//116 6//116 
f 28//117 59//117 6//117 
f 6//118 50//118 20//118 
f 6//119 61//119 28//119 
f 20//120 49//120 6//120 
